<svg id="Layer_1" data-name="Layer 1" xmlns="http://www.w3.org/2000/svg" viewBox="0 0 69 71.24"><defs><style>.cls-1{fill:#f7403a;}</style></defs><title>brightstar-logo</title><path class="cls-1" d="M26.6,48.58a.14.14,0,0,0-.07-.09,15.72,15.72,0,0,1-3.85-3.14.14.14,0,0,0-.2,0L10.91,55.44a.14.14,0,0,0,0,.1.14.14,0,0,0,0,.1,31.14,31.14,0,0,0,7.63,6.26l.07,0a.14.14,0,0,0,.12-.07l7.87-13.15a.14.14,0,0,0,0-.11"/><path class="cls-1" d="M20.73,42.84a.14.14,0,0,0,0-.11,15.8,15.8,0,0,1-1.55-3.85.14.14,0,0,0-.17-.1L4.07,42.51a.14.14,0,0,0-.1.17,30.76,30.76,0,0,0,3,7.68.14.14,0,0,0,.12.07l.07,0,13.46-7.49a.14.14,0,0,0,.07-.09"/><path class="cls-1" d="M18.58,33.74a.14.14,0,0,0,.14-.13,15.8,15.8,0,0,1,.67-3.43.14.14,0,0,0-.09-.18L4.76,25.39a.14.14,0,0,0-.18.09,30.72,30.72,0,0,0-1.4,6.77.14.14,0,0,0,.13.15l15.25,1.34h0"/><path class="cls-1" d="M22.36,24.52a.14.14,0,0,0,.09,0h0a.14.14,0,0,0,.1,0,15.59,15.59,0,0,1,2.16-2.05.14.14,0,0,0,0-.2L15.42,10.49a.14.14,0,0,0-.2,0A31.4,31.4,0,0,0,11,14.41a.14.14,0,0,0,0,.2Z"/><path class="cls-1" d="M34.47,50.63a15.69,15.69,0,0,1-5.73-1.07.14.14,0,0,0-.18.08L22.82,63.82a.14.14,0,0,0,.08.18,30.89,30.89,0,0,0,11.23,2.1h.34a.14.14,0,0,0,.14-.14V50.77a.14.14,0,0,0-.14-.14"/><path class="cls-1" d="M45.88,23.9a.14.14,0,0,0,.1,0h0a.14.14,0,0,0,.1,0L56.46,13.72a.14.14,0,0,0,0-.2,31.94,31.94,0,0,0-3.07-2.78.14.14,0,0,0-.11,0,.14.14,0,0,0-.09.05L44.26,22.25a.14.14,0,0,0,0,.2,15.3,15.3,0,0,1,1.59,1.45"/><path class="cls-1" d="M65.06,32.57a.14.14,0,0,0-.15-.13L50.36,33.56a.14.14,0,0,0-.13.15c0,.37,0,.75,0,1.12s0,.45,0,.73a.14.14,0,0,0,.13.15L65,36.28h0a.14.14,0,0,0,.14-.14c0-.36,0-.72,0-1.08,0-.84,0-1.68-.1-2.5"/><path class="cls-1" d="M46.59,45.19a.14.14,0,0,0-.2,0,15.8,15.8,0,0,1-1.11,1.16.14.14,0,0,0,0,.1.14.14,0,0,0,0,.1L55.43,57.44a.14.14,0,0,0,.1,0h0a.14.14,0,0,0,.1,0,31,31,0,0,0,2.16-2.3.14.14,0,0,0,0-.2Z"/><path class="cls-1" d="M36.91,4.38a45.7,45.7,0,0,0-5,0,.18.18,0,0,0-.12,0,.13.13,0,0,0,0,.1l1.34,14.55a.16.16,0,0,0,.18.13,22.13,22.13,0,0,1,2.59,0,.19.19,0,0,0,.12,0h0a.14.14,0,0,0,.06-.1l1-14.56a.15.15,0,0,0-.16-.15"/></svg>