<svg id="Layer_1" data-name="Layer 1" xmlns="http://www.w3.org/2000/svg" viewBox="0 0 254.5 71.24"><defs><style>.cls-1{fill:#fff;}.cls-2{fill:#fff;}</style></defs><title>brightstar-logo</title><path class="cls-1" d="M76.42,49.39H80.1V20.62H76.42v-1H87.21c4.43,0,11.1,1,11.1,7.54,0,5-5.39,6.8-7.37,7.11v.09c2.72.22,8.47,1.84,8.47,7.68,0,7.68-7.28,8.29-11.45,8.29H76.42ZM84.05,34h2.81c3.51,0,7.15-.09,7.15-6.84,0-5.88-2.15-6.49-7.72-6.49H84.05Zm0,15.44h2.72c5.22,0,8.16-.53,8.16-7.28s-3.64-7.19-8.07-7.19H84.05Z"/><path class="cls-1" d="M101.29,49.39h3.16V31.32h-3.55v-1h3.16a19.35,19.35,0,0,0,3.55-.35v5.4h.09c.26-1.36,2.19-5.83,5.92-5.83a2.81,2.81,0,0,1,3,2.72,2.19,2.19,0,0,1-1.93,2.37,1.78,1.78,0,0,1-2-1.93c0-.44.17-.79.17-1.05s-.17-.44-.53-.44c-2.41,0-4.56,5.22-4.56,9.34v8.82h3.29v1h-9.78Z"/><path class="cls-1" d="M118.26,49.39h3.16V31.32h-3.55v-1H121a21.6,21.6,0,0,0,3.73-.35V49.39H128v1h-9.78ZM121,23.21a2,2,0,1,1,2,2,2,2,0,0,1-2-2"/><path class="cls-1" d="M141.82,46.28c.57,0,1.27-.13,1.67-.13,3,0,4.56,2.15,4.56,5.18,0,4.69-3.9,8.86-10.26,8.86-3.9,0-7.85-1.8-7.85-5.79,0-2,2.33-3.82,3.25-4.39a4.3,4.3,0,0,1-3.42-4.47c0-2.46,2.67-3.82,4.34-4v-.09A5.83,5.83,0,0,1,130.5,36c0-2.72,2.59-6.45,7.55-6.45a7.07,7.07,0,0,1,5.44,2.37c1.05-1.23,1.84-2.72,3.64-2.72A1.74,1.74,0,0,1,149,31.06a1.41,1.41,0,0,1-1.54,1.49c-1.49,0-1.36-1.27-1.93-1.27-.35,0-1,.88-1.32,1.4a7.89,7.89,0,0,1,1.1,3.33c0,4.43-4.08,6.71-7.06,6.71a8.46,8.46,0,0,1-3-.61c-1.27.09-4,.66-4,2.89,0,1.71,1.36,1.8,2.5,1.8.61,0,1.36-.09,2-.13ZM134.1,50a7.74,7.74,0,0,0-1.8,4.34c0,2.76,2.46,4.82,6,4.82,5,0,8.29-3.95,8.29-6.71,0-2.24-.88-3.11-2.81-3.11-.35,0-1.1.13-1.58.13Zm3.77-8.29c3.86,0,3.95-1.93,3.95-5.75,0-3.11,0-5.48-3.82-5.48-4,0-4,2.54-4,5.48,0,3.11,0,5.75,3.86,5.75"/><path class="cls-1" d="M150.2,49.39h3.16V20.62H149.8v-1H153a21.59,21.59,0,0,0,3.73-.35V35.62h.09c1-2.24,3.64-6.05,7.81-6.05,4.6,0,5.53,3.2,5.53,4.65V49.39h3.29v1h-9.78v-1h3.16V33.86c0-1.67-.09-3.33-2.72-3.33s-7.37,3.82-7.37,9.3v9.56h3v1H150.2Z"/><path class="cls-1" d="M185.68,46.94c-.7,1.49-2.11,4.21-5.79,4.21-4,0-4.08-2.33-4.08-5.79v-14h-3.2v-1h3.2V25a4.86,4.86,0,0,0,.75.09,6.81,6.81,0,0,0,2.59-.61v5.88h5.22v1h-5.22V46.19c0,2.85.79,3.29,2.37,3.29,2,0,2.81-2,3.46-2.9Z"/><path class="cls-1" d="M186.86,42.9h.79c.35,1.8,1.58,7.28,6.49,7.28A4.56,4.56,0,0,0,199,45.66c0-4.08-5.79-3.86-8.25-4.69-2.72-.88-3.82-2.32-3.82-5.75a5.88,5.88,0,0,1,5.88-5.66,5.29,5.29,0,0,1,4.21,1.8l1.1-1.18h.66v5.57H198c-.48-1.36-1.4-5.22-5.18-5.22a4.06,4.06,0,0,0-4.3,4c0,2.9,3.55,2.81,6.14,3.42s5.92,1.62,5.92,6.05c0,3.82-2.15,7.15-6.54,7.15a6.84,6.84,0,0,1-5.09-2.24l-1.4,1.45h-.66Z"/><path class="cls-1" d="M213.79,46.94c-.7,1.49-2.11,4.21-5.79,4.21-4,0-4.08-2.33-4.08-5.79v-14h-3.2v-1h3.2V25a4.86,4.86,0,0,0,.75.09,6.81,6.81,0,0,0,2.59-.61v5.88h5.22v1h-5.22V46.19c0,2.85.79,3.29,2.37,3.29,2,0,2.81-2,3.46-2.9Z"/><path class="cls-1" d="M233.44,49a4.89,4.89,0,0,1-3.68,2.1c-2.54,0-3.2-2.5-3.25-3.95h-.09c-.74,1.27-2.63,3.95-6.14,3.95a5.22,5.22,0,0,1-5.31-5.4c0-6.05,9.17-6.8,11.54-7v-4c0-2.81,0-4.21-2.81-4.21-2.15,0-4.21.75-4.21,2,0,.83,1,.83,1,2.19a1.86,1.86,0,0,1-2.06,1.84c-1.23,0-1.89-.83-1.89-2.19,0-2.37,3-4.78,7.46-4.78a11.68,11.68,0,0,1,3.95.75c1.36.7,1.93.88,1.93,4V45.66c0,1.45,0,3.82,1.14,3.82a2.58,2.58,0,0,0,1.84-1Zm-6.93-9.3c-2.81.09-8,.92-8,5.35,0,2.54,1.14,4.39,3.38,4.39,1.75,0,3.16-1.62,3.86-2.85.53-.92.79-2.06.79-4.78Z"/><path class="cls-1" d="M234.72,49.39h3.16V31.32h-3.55v-1h3.16A19.35,19.35,0,0,0,241,30v5.4h.09c.26-1.36,2.19-5.83,5.92-5.83a2.81,2.81,0,0,1,3,2.72,2.19,2.19,0,0,1-1.93,2.37,1.78,1.78,0,0,1-2-1.93c0-.44.18-.79.18-1.05s-.18-.44-.53-.44c-2.41,0-4.56,5.22-4.56,9.34v8.82h3.29v1h-9.78Z"/><path class="cls-2" d="M26.6,48.58a.14.14,0,0,0-.07-.09,15.72,15.72,0,0,1-3.85-3.14.14.14,0,0,0-.2,0L10.91,55.44a.14.14,0,0,0,0,.1.14.14,0,0,0,0,.1,31.14,31.14,0,0,0,7.63,6.26l.07,0a.14.14,0,0,0,.12-.07l7.87-13.15a.14.14,0,0,0,0-.11"/><path class="cls-2" d="M20.73,42.84a.14.14,0,0,0,0-.11,15.8,15.8,0,0,1-1.55-3.85.14.14,0,0,0-.17-.1L4.07,42.51a.14.14,0,0,0-.1.17,30.76,30.76,0,0,0,3,7.68.14.14,0,0,0,.12.07l.07,0,13.46-7.49a.14.14,0,0,0,.07-.09"/><path class="cls-2" d="M18.58,33.74a.14.14,0,0,0,.14-.13,15.8,15.8,0,0,1,.67-3.43.14.14,0,0,0-.09-.18L4.76,25.39a.14.14,0,0,0-.18.09,30.72,30.72,0,0,0-1.4,6.77.14.14,0,0,0,.13.15l15.25,1.34h0"/><path class="cls-2" d="M22.36,24.52a.14.14,0,0,0,.09,0h0a.14.14,0,0,0,.1,0,15.59,15.59,0,0,1,2.16-2.05.14.14,0,0,0,0-.2L15.42,10.49a.14.14,0,0,0-.2,0A31.4,31.4,0,0,0,11,14.41a.14.14,0,0,0,0,.2Z"/><path class="cls-2" d="M34.47,50.63a15.69,15.69,0,0,1-5.73-1.07.14.14,0,0,0-.18.08L22.82,63.82a.14.14,0,0,0,.08.18,30.89,30.89,0,0,0,11.23,2.1h.34a.14.14,0,0,0,.14-.14V50.77a.14.14,0,0,0-.14-.14"/><path class="cls-2" d="M45.88,23.9a.14.14,0,0,0,.1,0h0a.14.14,0,0,0,.1,0L56.46,13.72a.14.14,0,0,0,0-.2,31.94,31.94,0,0,0-3.07-2.78.14.14,0,0,0-.11,0,.14.14,0,0,0-.09.05L44.26,22.25a.14.14,0,0,0,0,.2,15.3,15.3,0,0,1,1.59,1.45"/><path class="cls-2" d="M65.06,32.57a.14.14,0,0,0-.15-.13L50.36,33.56a.14.14,0,0,0-.13.15c0,.37,0,.75,0,1.12s0,.45,0,.73a.14.14,0,0,0,.13.15L65,36.28h0a.14.14,0,0,0,.14-.14c0-.36,0-.72,0-1.08,0-.84,0-1.68-.1-2.5"/><path class="cls-2" d="M46.59,45.19a.14.14,0,0,0-.2,0,15.8,15.8,0,0,1-1.11,1.16.14.14,0,0,0,0,.1.14.14,0,0,0,0,.1L55.43,57.44a.14.14,0,0,0,.1,0h0a.14.14,0,0,0,.1,0,31,31,0,0,0,2.16-2.3.14.14,0,0,0,0-.2Z"/><path class="cls-2" d="M36.91,4.38a45.7,45.7,0,0,0-5,0,.18.18,0,0,0-.12,0,.13.13,0,0,0,0,.1l1.34,14.55a.16.16,0,0,0,.18.13,22.13,22.13,0,0,1,2.59,0,.19.19,0,0,0,.12,0h0a.14.14,0,0,0,.06-.1l1-14.56a.15.15,0,0,0-.16-.15"/></svg>