<svg id="Layer_1" data-name="Layer 1" xmlns="http://www.w3.org/2000/svg" viewBox="0 0 201.12 245.91"><defs><style>.cls-1{fill:#fd0;}</style></defs><title>sprint-logo_icon</title><path class="cls-1" d="M96.1,184.84c23.64-30.39,42.25-66.13,42.25-91.8,0-13.4-9.64-22.76-22.16-29.85.24,27.89-9.43,93.25-20.09,121.66" transform="translate(-17.35 -13.91)"/><path class="cls-1" d="M18.61,259.82C74,241.26,154.29,198.11,210.13,159.55c4.67-3.23,8.34-6.21,8.34-11.45,0-9.1-16.72-21.3-24.79-26.16C149.75,167.59,62.3,236,18.61,259.82" transform="translate(-17.35 -13.91)"/><path class="cls-1" d="M70,221c34.14-23.59,83.76-68,100.55-92.17,3.94-5.68,6.85-9,6.85-14.92,0-9.75-11.31-16.9-19.52-21.86C138.29,138.24,94.26,195.77,70,221" transform="translate(-17.35 -13.91)"/><path class="cls-1" d="M101.11,155.54c4.42-29.19,1.82-64.43-3.82-86.53-3-12-13.9-25.61-23.93-29.84,13.13,37.32,24.45,90.48,27.75,116.37" transform="translate(-17.35 -13.91)"/><path class="cls-1" d="M91.38,114.55C81,86.64,55.25,28.32,17.35,13.91,42,41.14,78.61,95.24,91.38,114.55" transform="translate(-17.35 -13.91)"/></svg>